<?xml version="1.0" encoding="UTF-8" standalone="no"?>
<!DOCTYPE svg PUBLIC "-//W3C//DTD SVG 1.1//EN" "http://www.w3.org/Graphics/SVG/1.1/DTD/svg11.dtd">
<svg fill="#0E6B6F" width="100%" height="100%" viewBox="0 0 2257 955" version="1.1" xmlns="http://www.w3.org/2000/svg" xmlns:xlink="http://www.w3.org/1999/xlink" xml:space="preserve" xmlns:serif="http://www.serif.com/" style="fill-rule:evenodd;clip-rule:evenodd;stroke-linejoin:round;stroke-miterlimit:2;">
    <g id="Artboard1" transform="matrix(0.94574,0,0,0.965365,-593.503,-703.981)">
        <rect x="627.554" y="729.238" width="2386.26" height="988.797" style="fill:none;"/>
        <g id="Layer-1" serif:id="Layer 1" transform="matrix(4.40572,0,0,4.31615,-69.3481,-49.2434)">
            <g transform="matrix(1,0,0,1,176.06,363.125)">
                <path d="M0,17.275L4.445,17.275C7.012,17.275 9.797,16.242 9.797,13.425C9.797,10.327 7.166,9.388 4.506,9.388L0,9.388L0,17.275ZM0,6.949L3.631,6.949C6.104,6.949 8.668,6.415 8.668,3.349C8.668,0.626 6.291,0.001 3.912,0.001L0,0.001L0,6.949ZM-2.629,-2.441L4.133,-2.441C7.795,-2.441 11.486,-1.064 11.486,3.004C11.486,5.57 9.984,7.292 7.605,8.011L7.605,8.074C10.453,8.325 12.613,10.609 12.613,13.52C12.613,18.401 8.076,19.716 3.975,19.716L-2.629,19.716L-2.629,-2.441Z" style="fill:rgb(0,101,149);fill-rule:nonzero;"/>
            </g>
            <g transform="matrix(1,0,0,1,205.67,382.841)">
                <path d="M0,-22.157L13.926,-22.157L13.926,-19.716L2.629,-19.716L2.629,-12.767L13.174,-12.767L13.174,-10.328L2.629,-10.328L2.629,-2.441L14.488,-2.441L14.488,0L0,0L0,-22.157Z" style="fill:rgb(0,101,149);fill-rule:nonzero;"/>
            </g>
            <g transform="matrix(1,0,0,1,238.969,363.125)">
                <path d="M0,17.275L5.008,17.275C10.078,17.275 13.926,14.709 13.926,8.637C13.926,2.566 10.078,0.001 5.008,0.001L0,0.001L0,17.275ZM-2.629,-2.441L5.885,-2.441C10.234,-2.441 16.742,0.469 16.742,8.637C16.742,16.805 10.234,19.716 5.885,19.716L-2.629,19.716L-2.629,-2.441Z" style="fill:rgb(0,101,149);fill-rule:nonzero;"/>
            </g>
            <g transform="matrix(1,0,0,1,275.086,373.078)">
                <path d="M0,-2.63L2.35,-2.63C5.258,-2.63 9.045,-2.63 9.045,-6.291C9.045,-9.484 6.262,-9.952 3.693,-9.952L0,-9.952L0,-2.63ZM-2.629,-12.394L3.035,-12.394C7.324,-12.394 11.861,-11.768 11.861,-6.291C11.861,-3.068 9.766,-0.971 6.322,-0.44L12.613,9.764L9.389,9.764L3.381,-0.189L0,-0.189L0,9.764L-2.629,9.764L-2.629,-12.394Z" style="fill:rgb(0,101,149);fill-rule:nonzero;"/>
            </g>
            <g transform="matrix(1,0,0,1,0,148.245)">
                <rect x="304.1" y="212.439" width="2.629" height="22.157" style="fill:rgb(0,101,149);"/>
            </g>
            <g transform="matrix(1,0,0,1,334.332,366.974)">
                <path d="M0,10.14C0,13.113 -1.596,16.43 -6.32,16.43C-9.451,16.43 -11.674,14.834 -12.236,11.673L-9.609,11.142C-9.264,12.894 -8.137,13.99 -6.291,13.99C-3.285,13.99 -2.629,11.642 -2.629,9.232L-2.629,-6.29L0,-6.29L0,10.14Z" style="fill:rgb(0,101,149);fill-rule:nonzero;"/>
            </g>
            <g transform="matrix(1,0,0,1,352.361,382.84)">
                <path d="M0,-22.156L13.738,-22.156L13.738,-19.716L2.629,-19.716L2.629,-12.392L12.955,-12.392L12.955,-9.951L2.629,-9.951L2.629,0L0,0L0,-22.156Z" style="fill:rgb(0,101,149);fill-rule:nonzero;"/>
            </g>
            <g transform="matrix(1,0,0,1,392.797,378.929)">
                <path d="M0,-14.333C-0.877,-15.742 -2.441,-16.368 -4.037,-16.368C-6.354,-16.368 -8.764,-15.272 -8.764,-12.644C-8.764,-10.609 -7.637,-9.702 -4.1,-8.575C-0.656,-7.479 2.533,-6.354 2.533,-2.003C2.533,2.409 -1.252,4.475 -5.258,4.475C-7.824,4.475 -10.576,3.63 -12.08,1.407L-9.828,-0.439C-8.889,1.188 -7.01,2.034 -5.1,2.034C-2.848,2.034 -0.281,0.72 -0.281,-1.815C-0.281,-4.538 -2.129,-5.009 -6.07,-6.322C-9.201,-7.355 -11.58,-8.731 -11.58,-12.425C-11.58,-16.681 -7.916,-18.808 -4.037,-18.808C-1.564,-18.808 0.531,-18.12 2.16,-16.211L0,-14.333Z" style="fill:rgb(0,101,149);fill-rule:nonzero;"/>
            </g>
            <g transform="matrix(1,0,0,1,414.83,373.077)">
                <path d="M0,-2.629L2.348,-2.629C5.258,-2.629 9.047,-2.629 9.047,-6.291C9.047,-9.483 6.26,-9.952 3.693,-9.952L0,-9.952L0,-2.629ZM-2.627,-12.393L3.037,-12.393C7.324,-12.393 11.861,-11.767 11.861,-6.291C11.861,-3.068 9.764,-0.971 6.324,-0.439L12.613,9.764L9.389,9.764L3.381,-0.188L0,-0.188L0,9.764L-2.627,9.764L-2.627,-12.393Z" style="fill:rgb(0,101,149);fill-rule:nonzero;"/>
            </g>
            <g transform="matrix(1,0,0,1,443.844,382.84)">
                <path d="M0,-22.156L13.926,-22.156L13.926,-19.716L2.629,-19.716L2.629,-12.767L13.176,-12.767L13.176,-10.327L2.629,-10.327L2.629,-2.44L14.49,-2.44L14.49,0L0,0L0,-22.156Z" style="fill:rgb(0,101,149);fill-rule:nonzero;"/>
            </g>
            <g transform="matrix(1,0,0,1,471.887,382.84)">
                <path d="M0,-22.156L2.973,-22.156L9.795,-3.943L9.857,-3.943L16.898,-22.156L19.684,-22.156L11.016,0L8.48,0L0,-22.156Z" style="fill:rgb(0,101,149);fill-rule:nonzero;"/>
            </g>
            <g transform="matrix(1,0,0,1,0,148.244)">
                <rect x="506.563" y="212.44" width="2.631" height="22.156" style="fill:rgb(0,101,149);"/>
            </g>
            <g transform="matrix(1,0,0,1,537.736,378.929)">
                <path d="M0,-14.333C-0.877,-15.742 -2.441,-16.368 -4.039,-16.368C-6.354,-16.368 -8.762,-15.272 -8.762,-12.644C-8.762,-10.609 -7.637,-9.702 -4.1,-8.575C-0.658,-7.479 2.533,-6.354 2.533,-2.003C2.533,2.409 -1.252,4.475 -5.258,4.475C-7.824,4.475 -10.578,3.63 -12.08,1.407L-9.828,-0.439C-8.889,1.188 -7.01,2.034 -5.102,2.034C-2.85,2.034 -0.281,0.72 -0.281,-1.815C-0.281,-4.538 -2.127,-5.009 -6.072,-6.322C-9.201,-7.355 -11.58,-8.731 -11.58,-12.425C-11.58,-16.681 -7.918,-18.808 -4.039,-18.808C-1.564,-18.808 0.531,-18.12 2.16,-16.211L0,-14.333Z" style="fill:rgb(0,101,149);fill-rule:nonzero;"/>
            </g>
            <g transform="matrix(1,0,0,1,576.199,371.763)">
                <path d="M0,-0.001C0,-5.102 -3.566,-9.202 -8.762,-9.202C-13.957,-9.202 -17.523,-5.102 -17.523,-0.001C-17.523,5.099 -13.957,9.2 -8.762,9.2C-3.566,9.2 0,5.099 0,-0.001M-20.342,-0.001C-20.342,-6.698 -15.49,-11.642 -8.762,-11.642C-2.033,-11.642 2.818,-6.698 2.818,-0.001C2.818,6.696 -2.033,11.641 -8.762,11.641C-15.49,11.641 -20.342,6.696 -20.342,-0.001" style="fill:rgb(0,101,149);fill-rule:nonzero;"/>
            </g>
            <g transform="matrix(1,0,0,1,598.391,373.077)">
                <path d="M0,-2.629L2.348,-2.629C5.258,-2.629 9.045,-2.629 9.045,-6.291C9.045,-9.483 6.262,-9.952 3.693,-9.952L0,-9.952L0,-2.629ZM-2.627,-12.393L3.037,-12.393C7.324,-12.393 11.863,-11.767 11.863,-6.291C11.863,-3.068 9.766,-0.971 6.322,-0.439L12.613,9.764L9.391,9.764L3.381,-0.188L0,-0.188L0,9.764L-2.627,9.764L-2.627,-12.393Z" style="fill:rgb(0,101,149);fill-rule:nonzero;"/>
            </g>
            <g transform="matrix(1,0,0,1,627.404,382.84)">
                <path d="M0,-22.156L13.928,-22.156L13.928,-19.716L2.631,-19.716L2.631,-12.767L13.176,-12.767L13.176,-10.327L2.631,-10.327L2.631,-2.44L14.49,-2.44L14.49,0L0,0L0,-22.156Z" style="fill:rgb(0,101,149);fill-rule:nonzero;"/>
            </g>
            <g transform="matrix(1,0,0,1,658.482,382.84)">
                <path d="M0,-22.156L3.318,-22.156L16.15,-3.755L16.211,-3.755L16.211,-22.156L18.84,-22.156L18.84,0L15.523,0L2.693,-18.4L2.631,-18.4L2.631,0L0,0L0,-22.156Z" style="fill:rgb(0,101,149);fill-rule:nonzero;"/>
            </g>
            <g transform="matrix(1,0,0,1,0,81.501)">
                <rect x="170.414" y="252.49" width="510.203" height="8.799" style="fill:rgb(203,207,194);"/>
            </g>
            <g transform="matrix(1,0,0,1,216.906,295.142)">
                <path d="M0,-45.975L31.84,25.324L44.256,25.324L0,-71.299L-44.254,25.324L-31.838,25.324L0,-45.975Z" style="fill:rgb(0,101,149);fill-rule:nonzero;"/>
            </g>
            <g transform="matrix(1,0,0,1,539.934,223.843)">
                <path d="M0,96.623L31.84,25.324L63.68,96.623L76.096,96.623L31.84,0L-12.416,96.623L0,96.623Z" style="fill:rgb(0,101,149);fill-rule:nonzero;"/>
            </g>
            <g transform="matrix(1,0,0,1,302.217,227.776)">
                <path d="M0,94.657C21.266,94.657 33.928,79.043 33.928,58.638L33.928,0L22.373,0L22.373,54.705C22.373,69.825 17.824,83.84 0,83.84C-17.826,83.84 -22.375,69.825 -22.375,54.705L-22.375,0L-33.932,0L-33.932,58.638C-33.932,79.043 -21.27,94.657 0,94.657" style="fill:rgb(0,101,149);fill-rule:nonzero;"/>
            </g>
            <g transform="matrix(-1,0,0,1,906.853,-47.039)">
                <rect x="447.648" y="274.815" width="11.557" height="92.689" style="fill:rgb(0,101,149);"/>
            </g>
            <g transform="matrix(1,0,0,1,499.391,227.777)">
                <path d="M0,92.689L11.555,92.689L11.555,10.572L33.561,10.572L33.561,0L-22.004,0L-22.004,10.572L0,10.572L0,92.689Z" style="fill:rgb(0,101,149);fill-rule:nonzero;"/>
            </g>
            <g transform="matrix(1,0,0,1,651.299,236.626)">
                <path d="M0,74.989C-9.955,74.989 -18.068,67.613 -17.947,57.41L-29.625,59.869C-27.66,74.744 -15.979,85.806 -0.98,85.806C15.611,85.806 28.645,73.76 28.645,56.918C28.645,41.429 18.811,34.176 5.656,29.013L-0.98,26.431C-6.76,24.218 -13.891,20.408 -13.891,13.155C-13.891,5.041 -5.777,-0 1.6,-0C8.605,-0 13.031,2.952 16.473,8.728L25.693,3.197C20.652,-5.777 12.17,-10.817 1.844,-10.817C-12.168,-10.817 -25.445,-1.843 -25.445,13.155C-25.445,26.062 -15.857,32.086 -5.283,36.635L1.107,39.339C9.098,42.658 17.09,46.961 17.09,56.918C17.09,66.629 9.957,74.989 0,74.989" style="fill:rgb(0,101,149);fill-rule:nonzero;"/>
            </g>
            <g transform="matrix(1,0,0,1,418.26,318.236)">
                <path d="M0,-74.147L0.02,-74.163C-0.643,-75.055 -2.029,-76.377 -2.029,-76.377L-10.059,-68.415C-9.852,-68.268 -8.848,-67.168 -8.621,-66.917C-3.984,-61.458 -1.221,-54.027 -1.221,-44.114C-1.221,-17.194 -21.627,-8.34 -45.23,-8.34L-54.184,-8.364C-54.184,-8.364 -58.137,0.369 -58.73,2.23L-42.033,2.23C-12.777,2.23 10.334,-13.012 10.334,-44.606C10.334,-56.696 6.199,-66.803 0,-74.147" style="fill:rgb(0,101,149);fill-rule:nonzero;"/>
            </g>
            <g transform="matrix(1,0,0,1,367.678,192.98)">
                <path d="M0,109.382C22.092,65.929 57.662,30.448 101.186,8.47L109.645,4.208L109.645,-0.02C107.266,0.771 98.604,4.357 98.604,4.357C59.834,20.7 26.521,47.111 2.111,80.208L1.33,81.275C1.328,81.189 1.359,45.415 1.359,45.415L5.352,45.368C9.387,45.368 13.838,45.765 17.734,46.361C17.734,46.361 23.756,47.491 26.482,48.614L35.535,40.288C31.537,38.091 23.131,36.226 23.131,36.226C18.574,35.314 13.725,34.796 8.916,34.796L-10.273,34.843C-10.273,34.843 -10.492,109.22 -10.43,109.402L0,109.382Z" style="fill:rgb(0,101,149);fill-rule:nonzero;"/>
            </g>
        </g>
    </g>
</svg>
