<?xml version="1.0" encoding="UTF-8" standalone="no"?>
<!DOCTYPE svg PUBLIC "-//W3C//DTD SVG 1.1//EN" "http://www.w3.org/Graphics/SVG/1.1/DTD/svg11.dtd">
<svg fill="#0E6B6F" width="100%" height="100%" viewBox="0 0 1312 706" version="1.1" xmlns="http://www.w3.org/2000/svg" xmlns:xlink="http://www.w3.org/1999/xlink" xml:space="preserve" xmlns:serif="http://www.serif.com/" style="fill-rule:evenodd;clip-rule:evenodd;stroke-miterlimit:10;">
    <g id="Layer-1" serif:id="Layer 1" transform="matrix(4.16667,0,0,4.16667,0,0)">
        <g>
            <g transform="matrix(1,0,0,1,225.255,28.6084)">
                <path d="M0,80.443C-8.239,80.443 -16.478,80.426 -24.716,80.464C-25.704,80.469 -26.07,80.322 -26.057,79.196C-25.985,73.598 -25.998,67.999 -26.049,62.4C-26.058,61.425 -25.766,61.18 -24.847,61.233C-23.531,61.308 -22.203,61.183 -20.89,61.275C-19.906,61.344 -19.727,60.98 -19.729,60.076C-19.76,49.958 -19.748,39.839 -19.748,29.722C-19.748,26.642 -19.775,23.563 -19.729,20.484C-19.718,19.684 -19.961,19.456 -20.741,19.486C-22.219,19.544 -23.701,19.467 -25.179,19.518C-25.883,19.542 -26.04,19.289 -26.037,18.627C-26.014,12.828 -26.012,7.029 -26.04,1.23C-26.043,0.498 -25.85,0.28 -25.103,0.287C-9.588,0.421 5.933,-0.026 21.442,0.567C28.517,0.837 35.536,1.646 42.155,4.508C55.115,10.113 62.362,20.17 64.657,33.839C66.623,45.547 64.328,56.444 57.101,66.038C51.405,73.597 43.623,77.77 34.367,79.208C26.322,80.458 18.195,80.449 10.077,80.444C6.718,80.441 3.359,80.443 0,80.443ZM11.249,40.409C11.249,47.006 11.264,53.603 11.23,60.2C11.227,61.03 11.439,61.3 12.29,61.271C14.326,61.203 16.361,61.249 18.395,61.011C24.148,60.338 28.264,57.694 30.003,51.873C32.329,44.084 32.244,36.331 29.655,28.667C28.069,23.972 24.788,20.997 19.756,20.134C17.343,19.72 14.922,19.569 12.483,19.481C11.485,19.445 11.219,19.741 11.226,20.738C11.27,27.295 11.249,33.852 11.249,40.409Z" style="fill:rgb(214,25,41);"/>
            </g>
            <g transform="matrix(1,0,0,1,63.4771,109.046)">
                <path d="M0,-80.135C12.759,-80.135 25.519,-80.123 38.278,-80.159C39.277,-80.162 39.527,-79.911 39.521,-78.916C39.479,-70.917 39.484,-62.917 39.516,-54.917C39.519,-54.033 39.37,-53.7 38.372,-53.708C32.012,-53.76 25.652,-53.759 19.292,-53.709C18.306,-53.701 18.099,-54.014 18.135,-54.918C18.202,-56.635 18.125,-58.358 18.169,-60.076C18.187,-60.763 17.967,-60.952 17.289,-60.949C11.929,-60.923 6.569,-60.92 1.209,-60.951C0.451,-60.956 0.269,-60.708 0.275,-59.991C0.307,-56.511 0.312,-53.031 0.273,-49.552C0.265,-48.793 0.517,-48.614 1.234,-48.619C5.114,-48.65 8.994,-48.61 12.873,-48.652C13.756,-48.661 14.115,-48.515 14.102,-47.5C14.041,-42.781 14.052,-38.061 14.095,-33.342C14.103,-32.484 13.84,-32.285 13.02,-32.294C9.18,-32.336 5.339,-32.289 1.5,-32.331C0.609,-32.34 0.246,-32.173 0.264,-31.165C0.329,-27.526 0.313,-23.885 0.271,-20.246C0.262,-19.434 0.444,-19.142 1.312,-19.164C3.711,-19.224 6.112,-19.161 8.511,-19.199C9.246,-19.212 9.55,-19.076 9.545,-18.238C9.506,-12.478 9.508,-6.718 9.543,-0.958C9.548,-0.156 9.304,0.022 8.539,0.021C-7.021,0.001 -22.58,-0.002 -38.14,0.026C-39.027,0.027 -39.174,-0.275 -39.17,-1.072C-39.138,-6.751 -39.128,-12.432 -39.177,-18.111C-39.186,-19.067 -38.857,-19.227 -38.008,-19.204C-35.93,-19.147 -33.849,-19.211 -31.77,-19.171C-31.044,-19.158 -30.731,-19.284 -30.733,-20.129C-30.762,-33.408 -30.761,-46.688 -30.735,-59.968C-30.733,-60.79 -31.011,-60.965 -31.765,-60.95C-34.003,-60.907 -36.245,-60.972 -38.483,-60.915C-39.301,-60.894 -39.465,-61.177 -39.461,-61.934C-39.433,-67.613 -39.422,-73.293 -39.469,-78.973C-39.477,-79.923 -39.22,-80.159 -38.279,-80.156C-25.52,-80.125 -12.76,-80.135 0,-80.135" style="fill:rgb(214,25,41);"/>
            </g>
            <g transform="matrix(1,0,0,1,142.073,90.539)">
                <path d="M0,-42.428C3.983,-31.016 7.907,-19.775 11.913,-8.299C16.106,-19.761 20.216,-30.989 24.401,-42.428C22.465,-42.428 20.691,-42.482 18.924,-42.406C18.013,-42.367 17.793,-42.643 17.8,-43.537C17.842,-49.217 17.838,-54.897 17.802,-60.577C17.797,-61.416 18.023,-61.65 18.868,-61.647C28.947,-61.618 39.027,-61.619 49.107,-61.645C49.912,-61.648 50.202,-61.491 50.195,-60.612C50.154,-54.892 50.155,-49.172 50.195,-43.452C50.201,-42.592 49.947,-42.366 49.123,-42.41C47.847,-42.478 46.56,-42.365 45.285,-42.45C44.449,-42.506 44.124,-42.182 43.837,-41.441C40.452,-32.698 37.027,-23.97 33.617,-15.236C29.277,-4.124 24.928,6.984 20.628,18.111C20.272,19.03 19.807,19.244 18.886,19.239C11.406,19.2 3.926,19.197 -3.554,19.242C-4.503,19.248 -4.925,18.972 -5.291,18.087C-13.474,-1.715 -21.702,-21.498 -29.883,-41.3C-30.253,-42.198 -30.678,-42.513 -31.625,-42.45C-32.939,-42.363 -34.264,-42.447 -35.583,-42.419C-36.097,-42.409 -36.281,-42.572 -36.279,-43.1C-36.265,-49.06 -36.265,-55.02 -36.278,-60.98C-36.279,-61.533 -36.03,-61.676 -35.546,-61.631C-35.348,-61.613 -35.146,-61.628 -34.947,-61.628C-21.467,-61.628 -7.987,-61.614 5.493,-61.656C6.566,-61.659 6.805,-61.382 6.795,-60.339C6.74,-54.739 6.749,-49.139 6.79,-43.539C6.796,-42.666 6.613,-42.364 5.685,-42.404C3.85,-42.485 2.009,-42.428 0,-42.428" style="fill:rgb(214,25,41);"/>
            </g>
            <g transform="matrix(1,0,0,1,151.574,136.927)">
                <path d="M0,10.709C-0.729,7.485 -0.729,7.485 -3.808,7.485C-6.118,7.485 -6.123,7.484 -6.841,9.728C-6.937,10.024 -7.144,10.305 -7.02,10.69C-6.764,10.706 -6.485,10.767 -6.218,10.731C-5.421,10.627 -5.442,11.11 -5.423,11.682C-5.403,12.299 -5.595,12.526 -6.234,12.518C-8.59,12.489 -10.947,12.487 -13.303,12.52C-13.896,12.528 -14.132,12.252 -14.359,11.771C-15.176,10.041 -16.1,8.357 -16.851,6.6C-17.29,5.572 -18.071,5.863 -18.761,5.897C-19.623,5.94 -19.207,6.682 -19.249,7.118C-19.314,7.791 -19.241,8.477 -19.272,9.154C-19.317,10.124 -19.385,11.019 -17.914,10.764C-17.156,10.633 -17.457,11.33 -17.418,11.697C-17.377,12.082 -17.31,12.518 -17.958,12.51C-19.557,12.491 -21.156,12.485 -22.755,12.514C-23.569,12.528 -23.341,11.965 -23.385,11.526C-23.436,11.012 -23.327,10.625 -22.697,10.745C-21.583,10.958 -21.393,10.438 -21.417,9.434C-21.484,6.638 -21.456,3.838 -21.43,1.04C-21.423,0.346 -21.481,-0.157 -22.371,-0.008C-23.095,0.114 -23.413,-0.104 -23.417,-0.949C-23.423,-1.854 -22.932,-1.771 -22.356,-1.766C-20.198,-1.742 -18.036,-1.811 -15.883,-1.691C-13.163,-1.541 -11.745,0.405 -12.322,2.962C-12.562,4.024 -13.173,4.831 -14.162,5.158C-15.136,5.481 -15.04,5.88 -14.638,6.605C-14.059,7.649 -13.545,8.735 -13.074,9.834C-12.786,10.507 -12.408,10.776 -11.641,10.761C-9.375,10.713 -9.371,10.752 -8.61,8.625C-7.684,6.035 -6.781,3.436 -5.831,0.854C-5.588,0.195 -5.497,-0.24 -6.422,-0.131C-7.106,-0.05 -7.18,-0.442 -7.207,-1.003C-7.239,-1.691 -6.91,-1.779 -6.34,-1.771C-4.462,-1.747 -2.583,-1.745 -0.704,-1.773C-0.123,-1.782 0.151,-1.681 0.145,-1.002C0.138,-0.332 -0.042,-0.035 -0.732,-0.129C-1.465,-0.229 -1.613,0.016 -1.343,0.73C-0.173,3.825 0.95,6.939 2.079,10.05C2.242,10.499 2.434,10.849 2.999,10.74C3.837,10.578 3.956,11.012 3.969,11.743C3.983,12.563 3.525,12.516 2.979,12.511C1.78,12.498 0.58,12.481 -0.618,12.517C-1.31,12.537 -1.707,12.459 -1.704,11.578C-1.701,10.72 -1.283,10.689 -0.666,10.735C-0.47,10.751 -0.271,10.722 0,10.709" style="fill:rgb(214,25,41);"/>
            </g>
            <g transform="matrix(1,0,0,1,106.925,139.284)">
                <path d="M0,5.831C0.521,4.988 0.795,4.234 0.921,3.449C1.033,2.754 1.36,2.514 2.042,2.602C2.474,2.658 2.922,2.646 3.358,2.605C3.983,2.547 4.104,2.871 4.062,3.393C4.025,3.844 4.208,4.457 3.407,4.328C2.677,4.211 2.448,4.61 2.271,5.208C2.125,5.7 1.888,6.171 1.649,6.628C1.053,7.769 1.421,8.336 2.76,8.397C3.187,8.417 3.756,8.107 4.026,8.688C4.402,9.496 3.964,10.177 3.075,10.139C1.987,10.093 0.742,10.565 0.018,9.187C-0.196,8.781 -0.54,9.228 -0.773,9.381C-2.262,10.357 -3.872,10.652 -5.574,10.153C-7.457,9.602 -8.667,8.354 -8.983,6.389C-9.311,4.352 -8.542,2.752 -6.73,1.782C-5.968,1.374 -5.984,1.077 -6.35,0.386C-7.262,-1.339 -6.734,-3.012 -5.105,-3.909C-3.45,-4.821 -1.249,-4.325 -0.316,-2.83C0.659,-1.267 0.123,0.459 -1.778,1.413C-2.675,1.864 -2.878,2.165 -2.149,2.974C-1.38,3.825 -0.757,4.81 0,5.831" style="fill:rgb(214,25,41);"/>
            </g>
            <g transform="matrix(1,0,0,1,190.605,149.651)">
                <path d="M0,-14.486C1.197,-14.424 2.643,-14.612 4.065,-14.282C5.739,-13.893 6.69,-12.829 6.867,-11.133C7.035,-9.524 6.339,-8.12 4.853,-7.542C3.98,-7.201 4.024,-6.861 4.398,-6.187C4.883,-5.317 5.308,-4.411 5.713,-3.501C6.107,-2.613 6.427,-1.744 7.714,-1.958C8.38,-2.068 8.146,-1.432 8.155,-1.095C8.165,-0.747 8.338,-0.319 7.688,-0.205C5.803,0.126 5.085,-0.203 4.246,-1.923C3.563,-3.32 2.805,-4.687 2.215,-6.124C1.789,-7.159 0.991,-6.872 0.304,-6.822C-0.535,-6.76 -0.132,-6.019 -0.163,-5.581C-0.225,-4.705 -0.146,-3.82 -0.192,-2.943C-0.228,-2.251 -0.062,-1.849 0.723,-1.983C1.432,-2.104 1.677,-1.86 1.682,-1.092C1.687,-0.285 1.362,-0.184 0.691,-0.204C-0.668,-0.246 -2.029,-0.252 -3.388,-0.202C-4.11,-0.175 -4.363,-0.379 -4.35,-1.136C-4.338,-1.832 -4.111,-2.096 -3.452,-1.981C-2.524,-1.818 -2.323,-2.226 -2.34,-3.103C-2.396,-5.942 -2.382,-8.783 -2.348,-11.622C-2.338,-12.382 -2.437,-12.88 -3.359,-12.73C-4.028,-12.622 -4.354,-12.802 -4.355,-13.607C-4.355,-14.414 -4.027,-14.525 -3.356,-14.498C-2.318,-14.455 -1.277,-14.486 0,-14.486" style="fill:rgb(214,25,41);"/>
            </g>
            <g transform="matrix(1,0,0,1,232.891,149.626)">
                <path d="M0,-14.461C1.23,-14.393 2.716,-14.598 4.175,-14.233C5.725,-13.847 6.668,-12.8 6.853,-11.241C7.054,-9.541 6.379,-8.132 4.87,-7.522C4.065,-7.196 3.961,-6.932 4.379,-6.193C5.007,-5.085 5.54,-3.92 6.058,-2.754C6.315,-2.175 6.627,-1.83 7.308,-1.955C7.976,-2.077 8.187,-1.795 8.198,-1.108C8.211,-0.352 7.955,-0.079 7.234,-0.19C7.196,-0.196 7.153,-0.198 7.115,-0.19C5.579,0.137 4.716,-0.486 4.179,-1.964C3.663,-3.38 2.813,-4.671 2.238,-6.07C1.822,-7.084 1.042,-6.856 0.338,-6.803C-0.521,-6.738 -0.086,-6.006 -0.126,-5.575C-0.196,-4.822 -0.098,-4.055 -0.157,-3.3C-0.232,-2.359 -0.101,-1.741 1.084,-1.943C1.837,-2.072 1.612,-1.439 1.638,-1.05C1.666,-0.611 1.723,-0.168 1.019,-0.184C-0.539,-0.215 -2.099,-0.214 -3.657,-0.184C-4.433,-0.168 -4.31,-0.674 -4.332,-1.148C-4.354,-1.646 -4.294,-2.073 -3.65,-1.952C-2.338,-1.705 -2.286,-2.443 -2.307,-3.455C-2.361,-6.172 -2.35,-8.891 -2.311,-11.608C-2.299,-12.393 -2.442,-12.846 -3.343,-12.706C-3.996,-12.605 -4.363,-12.748 -4.357,-13.572C-4.352,-14.365 -4.042,-14.504 -3.359,-14.474C-2.322,-14.428 -1.281,-14.461 0,-14.461" style="fill:rgb(214,25,41);"/>
            </g>
            <g transform="matrix(1,0,0,1,40.5327,149.327)">
                <path d="M0,-14.162C1.196,-14.097 2.641,-14.291 4.061,-13.939C5.619,-13.554 6.585,-12.492 6.749,-10.963C6.938,-9.203 6.312,-7.805 4.793,-7.238C3.824,-6.877 3.961,-6.505 4.333,-5.821C4.846,-4.876 5.331,-3.909 5.743,-2.916C6.09,-2.081 6.457,-1.433 7.541,-1.646C8.155,-1.768 8.138,-1.273 8.108,-0.869C8.079,-0.475 8.312,0.09 7.582,0.101C6.863,0.111 6.143,0.085 5.424,0.11C4.886,0.129 4.788,-0.288 4.619,-0.632C3.795,-2.315 2.911,-3.974 2.187,-5.7C1.719,-6.814 0.88,-6.514 0.091,-6.499C-0.319,-6.49 -0.229,-6.11 -0.231,-5.852C-0.243,-4.933 -0.196,-4.012 -0.249,-3.096C-0.302,-2.163 -0.279,-1.414 1.01,-1.646C1.653,-1.762 1.565,-1.226 1.543,-0.849C1.521,-0.464 1.762,0.104 1.018,0.104C-0.581,0.104 -2.18,0.087 -3.778,0.111C-4.492,0.123 -4.388,-0.354 -4.386,-0.781C-4.385,-1.202 -4.5,-1.787 -3.787,-1.645C-2.36,-1.363 -2.383,-2.209 -2.397,-3.221C-2.438,-5.937 -2.433,-8.656 -2.397,-11.373C-2.388,-12.106 -2.518,-12.538 -3.365,-12.406C-4.083,-12.295 -4.422,-12.5 -4.421,-13.348C-4.42,-14.239 -3.93,-14.171 -3.354,-14.165C-2.315,-14.155 -1.276,-14.162 0,-14.162" style="fill:rgb(214,25,41);"/>
            </g>
            <g transform="matrix(1,0,0,1,284.493,135.172)">
                <path d="M0,14.262C-1.639,14.262 -3.279,14.226 -4.917,14.279C-5.649,14.302 -5.884,14.099 -5.864,13.348C-5.847,12.68 -5.674,12.378 -4.991,12.495C-4.109,12.647 -3.941,12.222 -3.954,11.419C-3.998,8.541 -3.991,5.661 -3.957,2.783C-3.949,2.053 -4.073,1.604 -4.923,1.751C-5.655,1.878 -5.852,1.585 -5.87,0.843C-5.89,-0.002 -5.494,-0.021 -4.86,-0.017C-1.541,0.003 1.778,0.021 5.096,-0.028C5.918,-0.04 6.14,0.234 6.087,0.996C6.031,1.792 6.031,2.598 6.087,3.394C6.14,4.148 5.841,4.339 5.122,4.336C4.439,4.333 4.17,4.13 4.252,3.449C4.29,3.133 4.232,2.807 4.264,2.49C4.322,1.909 4.079,1.73 3.51,1.741C1.991,1.773 0.471,1.773 -1.048,1.741C-1.624,1.73 -1.827,1.925 -1.806,2.498C-1.771,3.416 -1.756,4.339 -1.81,5.256C-1.85,5.931 -1.558,6.052 -0.968,6.034C0.271,5.998 1.513,6.061 2.75,6.01C3.437,5.982 3.525,6.287 3.521,6.862C3.516,7.451 3.487,7.854 2.711,7.816C1.554,7.758 0.392,7.832 -0.767,7.789C-1.486,7.763 -1.884,7.884 -1.814,8.754C-1.72,9.944 -2.198,11.503 -1.605,12.24C-0.982,13.013 0.641,12.409 1.822,12.493C1.941,12.502 2.063,12.494 2.182,12.494C4.134,12.494 4.18,12.496 4.235,10.574C4.258,9.823 4.638,9.854 5.145,9.868C5.621,9.881 6.166,9.768 6.074,10.547C6.069,10.586 6.072,10.627 6.074,10.667C6.254,14.262 6.254,14.262 2.64,14.262L0,14.262Z" style="fill:rgb(214,25,41);"/>
            </g>
            <g transform="matrix(1,0,0,1,179.469,149.884)">
                <path d="M0,-14.719C1.639,-14.719 3.278,-14.69 4.916,-14.734C5.609,-14.751 5.944,-14.618 5.882,-13.827C5.81,-12.913 5.831,-11.989 5.874,-11.071C5.911,-10.287 5.401,-10.416 4.927,-10.393C4.423,-10.368 4.138,-10.438 4.1,-11.076C3.988,-12.962 3.954,-12.96 2.105,-12.96C1.026,-12.96 -0.055,-12.922 -1.132,-12.974C-1.827,-13.006 -2.051,-12.747 -2.014,-12.079C-1.954,-11.007 -2.345,-9.63 -1.815,-8.942C-1.25,-8.203 0.195,-8.778 1.252,-8.692C1.609,-8.663 1.973,-8.667 2.331,-8.692C2.951,-8.736 3.366,-8.707 3.371,-7.847C3.376,-6.958 2.974,-6.879 2.279,-6.901C1.161,-6.936 0.039,-6.869 -1.078,-6.925C-1.836,-6.962 -2.068,-6.672 -2.014,-5.954C-1.923,-4.765 -2.495,-3.231 -1.801,-2.472C-1.096,-1.703 0.459,-2.305 1.638,-2.219C1.836,-2.204 2.037,-2.217 2.236,-2.217C4.065,-2.217 4.1,-2.217 4.102,-3.982C4.102,-4.651 4.277,-4.88 4.966,-4.861C5.58,-4.844 5.944,-4.781 5.876,-4.031C5.771,-2.886 6.337,-1.422 5.662,-0.671C5.023,0.037 3.55,-0.475 2.445,-0.46C-0.033,-0.426 -2.512,-0.461 -4.99,-0.442C-5.615,-0.436 -6.038,-0.449 -6.017,-1.299C-5.999,-2.031 -5.818,-2.341 -5.072,-2.219C-4.421,-2.113 -4.162,-2.35 -4.171,-3.059C-4.206,-6.056 -4.209,-9.055 -4.169,-12.053C-4.159,-12.818 -4.435,-13.07 -5.141,-12.959C-5.838,-12.85 -6.015,-13.165 -6.009,-13.83C-6.003,-14.471 -5.879,-14.756 -5.157,-14.735C-3.439,-14.686 -1.72,-14.719 0,-14.719" style="fill:rgb(214,25,41);"/>
            </g>
            <g transform="matrix(1,0,0,1,221.749,149.414)">
                <path d="M0,-14.249C1.639,-14.249 3.277,-14.223 4.914,-14.262C5.597,-14.278 5.955,-14.16 5.891,-13.36C5.819,-12.487 5.832,-11.602 5.887,-10.726C5.934,-9.952 5.514,-9.927 4.926,-9.913C4.323,-9.899 4.1,-10.051 4.087,-10.705C4.053,-12.491 4.017,-12.49 2.252,-12.49C1.134,-12.49 0.013,-12.451 -1.104,-12.504C-1.809,-12.538 -2.033,-12.27 -1.969,-11.607C-1.861,-10.51 -2.443,-9.081 -1.719,-8.405C-1.154,-7.877 0.25,-8.244 1.281,-8.219C1.641,-8.21 2.002,-8.193 2.359,-8.223C2.998,-8.274 3.398,-8.205 3.376,-7.363C3.355,-6.615 3.121,-6.397 2.404,-6.428C1.247,-6.477 0.086,-6.41 -1.071,-6.452C-1.731,-6.477 -2.016,-6.288 -1.976,-5.582C-1.904,-4.353 -2.351,-2.778 -1.745,-1.985C-1.162,-1.221 0.498,-1.831 1.683,-1.748C1.802,-1.739 1.922,-1.747 2.042,-1.747C3.983,-1.747 4.03,-1.745 4.082,-3.672C4.103,-4.426 4.481,-4.376 4.985,-4.377C5.496,-4.378 5.928,-4.409 5.887,-3.662C5.833,-2.667 5.854,-1.665 5.881,-0.667C5.895,-0.148 5.7,0.029 5.185,0.027C1.669,0.012 -1.847,0.005 -5.362,0.029C-6.183,0.035 -5.955,-0.512 -5.992,-0.946C-6.033,-1.431 -5.997,-1.862 -5.33,-1.744C-4.263,-1.554 -4.104,-2.088 -4.123,-3.02C-4.18,-5.816 -4.17,-8.614 -4.127,-11.41C-4.115,-12.214 -4.297,-12.64 -5.174,-12.49C-5.901,-12.366 -6.004,-12.751 -6.012,-13.377C-6.02,-14.033 -5.854,-14.284 -5.153,-14.265C-3.437,-14.217 -1.718,-14.249 0,-14.249" style="fill:rgb(214,25,41);"/>
            </g>
            <g transform="matrix(1,0,0,1,274.83,148.535)">
                <path d="M0,-12.135C-0.251,-13.357 0.373,-13.397 1.177,-13.389C2.169,-13.378 1.831,-12.688 1.855,-12.209C1.896,-11.452 1.902,-10.69 1.852,-9.935C1.825,-9.55 2.152,-8.905 1.533,-8.831C0.899,-8.756 0.162,-8.47 -0.347,-9.361C-1.146,-10.761 -2.463,-11.512 -4.068,-11.658C-6.716,-11.901 -8.849,-10.268 -9.348,-7.671C-9.933,-4.626 -8.536,-1.89 -5.971,-1.051C-3.545,-0.259 -1.14,-1.456 0.068,-4.036C0.221,-4.363 0.241,-5.1 0.893,-4.615C1.376,-4.257 2.49,-4.323 2.04,-3.188C1.774,-2.516 1.441,-1.884 0.983,-1.322C-0.768,0.821 -4.208,1.717 -7.128,0.787C-9.733,-0.042 -11.632,-2.571 -11.796,-5.43C-12.047,-9.802 -9.948,-12.872 -6.18,-13.496C-4.036,-13.852 -1.974,-13.516 0,-12.135" style="fill:rgb(214,25,41);"/>
            </g>
            <g transform="matrix(1,0,0,1,60.7432,143.066)">
                <path d="M0,-1.262C0,-0.063 0.016,1.137 -0.004,2.336C-0.042,4.618 -1.191,6.05 -3.386,6.469C-4.489,6.679 -5.622,6.672 -6.725,6.436C-8.945,5.965 -10.027,4.695 -10.076,2.412C-10.13,-0.107 -10.128,-2.626 -10.088,-5.145C-10.076,-5.917 -10.275,-6.276 -11.08,-6.144C-11.85,-6.017 -11.887,-6.481 -11.895,-7.073C-11.901,-7.666 -11.756,-7.936 -11.098,-7.914C-9.74,-7.871 -8.378,-7.867 -7.021,-7.916C-6.356,-7.941 -6.208,-7.685 -6.235,-7.084C-6.259,-6.535 -6.191,-6.001 -7.01,-6.143C-7.745,-6.27 -7.968,-5.973 -7.953,-5.227C-7.905,-2.788 -7.954,-0.349 -7.919,2.09C-7.891,4.022 -7.005,4.854 -5.095,4.848C-3.056,4.842 -2.204,4.065 -2.17,2.066C-2.129,-0.372 -2.167,-2.812 -2.13,-5.25C-2.121,-5.892 -2.252,-6.261 -2.978,-6.143C-3.7,-6.026 -3.819,-6.402 -3.831,-7.039C-3.845,-7.731 -3.616,-7.939 -2.94,-7.915C-1.623,-7.87 -0.301,-7.878 1.018,-7.912C1.623,-7.928 1.891,-7.761 1.856,-7.108C1.827,-6.553 1.877,-6.008 1.073,-6.148C0.083,-6.319 -0.034,-5.796 0.003,-4.98C0.061,-3.743 0.019,-2.502 0.019,-1.262L0,-1.262Z" style="fill:rgb(214,25,41);"/>
            </g>
            <g transform="matrix(1,0,0,1,75.9663,139.667)">
                <path d="M0,4.039C2.152,5.001 2.21,5.207 0.893,7.115C-0.828,9.605 -4.437,10.676 -7.601,9.635C-10.483,8.686 -12.401,5.716 -12.264,2.413C-12.018,-3.514 -6.411,-6.637 -1.197,-3.752C-0.993,-3.639 -0.785,-3.533 -0.441,-3.352C-0.458,-4.088 -0.372,-4.599 0.538,-4.539C1.294,-4.49 1.496,-4.263 1.452,-3.556C1.4,-2.721 1.47,-1.877 1.426,-1.041C1.406,-0.658 1.701,-0.022 1.078,0.042C0.478,0.103 -0.224,0.388 -0.718,-0.433C-1.786,-2.205 -3.443,-2.934 -5.485,-2.795C-5.878,-2.769 -6.278,-2.684 -6.649,-2.553C-8.755,-1.815 -10.11,0.54 -9.89,3.039C-9.664,5.606 -7.979,7.628 -5.762,7.991C-3.453,8.369 -1.369,7.14 -0.33,4.786L0,4.039Z" style="fill:rgb(214,25,41);"/>
            </g>
            <g transform="matrix(1,0,0,1,206.575,135.963)">
                <path d="M0,12.559C0.144,13.657 -0.631,13.489 -1.298,13.466C-2.224,13.434 -1.795,12.712 -1.819,12.303C-1.882,11.268 -1.829,10.227 -1.845,9.189C-1.853,8.678 -1.882,8.221 -1.133,8.299C-0.6,8.354 -0.094,8.159 -0.014,9.073C0.149,10.955 2.38,12.313 4.173,11.733C5.187,11.405 5.758,10.696 5.819,9.618C5.878,8.582 5.317,7.97 4.391,7.663C3.294,7.3 2.174,7.008 1.085,6.622C-1.347,5.762 -2.385,3.932 -1.746,1.713C-1.157,-0.332 1.154,-1.498 3.49,-0.905C3.912,-0.797 4.315,-0.61 4.716,-0.435C5.074,-0.278 5.378,0.187 5.602,-0.659C5.735,-1.166 6.445,-0.892 6.893,-0.877C7.365,-0.86 7.256,-0.437 7.26,-0.138C7.27,0.741 7.269,1.62 7.262,2.498C7.258,2.955 7.407,3.518 6.617,3.475C6.083,3.446 5.577,3.626 5.454,2.725C5.312,1.676 4.371,1.165 3.413,0.953C2.392,0.725 1.321,0.666 0.504,1.542C-0.33,2.437 -0.001,3.784 1.228,4.264C2.226,4.655 3.271,4.936 4.314,5.194C6.339,5.695 7.668,6.854 7.923,8.987C8.124,10.678 7.503,12.08 6.042,12.977C4.281,14.057 2.479,13.935 0.719,12.899C0.548,12.797 0.384,12.683 0.214,12.58C0.187,12.564 0.144,12.572 0,12.559" style="fill:rgb(214,25,41);"/>
            </g>
            <g transform="matrix(1,0,0,1,244.569,147.825)">
                <path d="M0,-10.902C1.21,-7.713 2.362,-4.675 3.63,-1.337C4.813,-4.532 5.885,-7.423 6.956,-10.314C7.209,-10.998 6.72,-10.953 6.335,-10.892C5.45,-10.753 5.529,-11.307 5.493,-11.896C5.45,-12.575 5.752,-12.686 6.337,-12.672C7.655,-12.638 8.977,-12.627 10.294,-12.674C11.019,-12.7 11.031,-12.313 11.03,-11.781C11.028,-11.252 11.023,-10.775 10.298,-10.907C9.44,-11.063 9.138,-10.608 8.872,-9.872C7.573,-6.27 6.194,-2.698 4.899,0.905C4.652,1.593 4.321,1.798 3.614,1.797C2.89,1.795 2.475,1.652 2.198,0.895C0.885,-2.701 -0.515,-6.265 -1.841,-9.856C-2.103,-10.566 -2.368,-11.072 -3.245,-10.908C-4.035,-10.76 -4.013,-11.289 -4.037,-11.855C-4.065,-12.495 -3.832,-12.689 -3.212,-12.673C-1.894,-12.635 -0.573,-12.643 0.746,-12.67C1.337,-12.681 1.724,-12.645 1.693,-11.863C1.668,-11.2 1.611,-10.757 0.798,-10.897C0.605,-10.93 0.402,-10.902 0,-10.902" style="fill:rgb(214,25,41);"/>
            </g>
            <g transform="matrix(1,0,0,1,29.854,149.424)">
                <path d="M0,-14.259C1.6,-14.259 3.201,-14.216 4.798,-14.278C5.607,-14.309 5.822,-14.028 5.785,-13.26C5.727,-12.064 5.728,-10.86 5.784,-9.662C5.82,-8.9 5.442,-8.839 4.84,-8.835C4.254,-8.833 3.929,-8.954 4,-9.625C4.046,-10.061 4.016,-10.505 4.007,-10.945C3.972,-12.754 4.276,-12.409 2.401,-12.523C1.36,-12.585 1.04,-12.318 1.074,-11.228C1.163,-8.431 1.13,-5.63 1.087,-2.831C1.075,-2.045 1.208,-1.599 2.105,-1.754C2.782,-1.871 3.003,-1.575 2.992,-0.894C2.981,-0.251 2.847,0.05 2.127,0.024C0.729,-0.024 -0.673,-0.021 -2.071,0.024C-2.757,0.046 -2.964,-0.185 -2.954,-0.863C-2.945,-1.497 -2.836,-1.879 -2.108,-1.756C-1.265,-1.613 -1.032,-1.962 -1.047,-2.803C-1.099,-5.681 -1.096,-8.562 -1.048,-11.44C-1.034,-12.266 -1.246,-12.639 -2.105,-12.505C-2.339,-12.469 -2.589,-12.469 -2.823,-12.505C-3.757,-12.65 -4.148,-12.296 -4.018,-11.333C-3.955,-10.862 -4.037,-10.372 -4,-9.896C-3.946,-9.182 -4.087,-8.807 -4.96,-8.818C-5.787,-8.829 -5.853,-9.192 -5.833,-9.841C-5.797,-10.999 -5.781,-12.162 -5.838,-13.319C-5.874,-14.039 -5.684,-14.304 -4.918,-14.277C-3.281,-14.219 -1.64,-14.259 0,-14.259" style="fill:rgb(214,25,41);"/>
            </g>
            <g transform="matrix(1,0,0,1,121.975,149.452)">
                <path d="M0,-14.287C1.639,-14.287 3.278,-14.264 4.917,-14.3C5.524,-14.312 5.766,-14.158 5.741,-13.506C5.693,-12.228 5.696,-10.947 5.74,-9.67C5.763,-9.028 5.535,-8.841 4.92,-8.864C4.351,-8.886 3.871,-8.873 3.962,-9.663C4.007,-10.058 3.974,-10.462 3.968,-10.861C3.943,-12.786 4.198,-12.442 2.327,-12.55C1.294,-12.608 0.947,-12.348 0.981,-11.252C1.065,-8.456 1.036,-5.656 0.992,-2.858C0.979,-2.054 1.162,-1.634 2.037,-1.784C2.747,-1.906 2.89,-1.555 2.887,-0.91C2.884,-0.274 2.768,0.027 2.039,-0.002C0.642,-0.057 -0.76,-0.048 -2.158,-0.004C-2.802,0.016 -2.997,-0.21 -2.96,-0.829C-2.928,-1.362 -3.026,-1.922 -2.197,-1.784C-1.354,-1.644 -1.12,-1.999 -1.134,-2.834C-1.183,-5.711 -1.181,-8.591 -1.135,-11.468C-1.122,-12.296 -1.352,-12.657 -2.202,-12.534C-2.476,-12.495 -2.766,-12.494 -3.04,-12.534C-3.875,-12.656 -4.207,-12.335 -4.104,-11.483C-4.043,-10.971 -4.121,-10.443 -4.086,-9.926C-4.042,-9.244 -4.116,-8.834 -5.01,-8.845C-5.878,-8.855 -5.855,-9.296 -5.846,-9.894C-5.827,-11.094 -5.807,-12.294 -5.853,-13.491C-5.877,-14.13 -5.661,-14.314 -5.036,-14.3C-3.358,-14.263 -1.679,-14.287 0,-14.287" style="fill:rgb(214,25,41);"/>
            </g>
            <g transform="matrix(1,0,0,1,167.363,135.169)">
                <path d="M0,14.265C-1.437,14.265 -2.876,14.226 -4.312,14.281C-5.046,14.309 -5.149,13.999 -5.155,13.369C-5.161,12.723 -5.01,12.377 -4.304,12.498C-3.43,12.648 -3.248,12.228 -3.261,11.425C-3.304,8.55 -3.308,5.674 -3.259,2.8C-3.244,1.952 -3.513,1.619 -4.341,1.755C-5.103,1.88 -5.156,1.441 -5.15,0.842C-5.145,0.286 -5.088,-0.044 -4.39,-0.019C-2.954,0.031 -1.515,0.028 -0.078,-0.018C0.588,-0.041 0.721,0.231 0.706,0.821C0.691,1.39 0.712,1.886 -0.086,1.756C-0.779,1.643 -1.067,1.862 -1.055,2.646C-1.008,5.64 -1.019,8.635 -1.05,11.629C-1.057,12.291 -0.888,12.554 -0.189,12.51C0.919,12.44 2.354,12.865 3.059,12.316C3.811,11.73 3.258,10.23 3.294,9.13C3.321,8.277 3.122,7.43 4.512,7.612C5.187,7.701 5.392,7.875 5.376,8.536C5.339,10.172 5.343,11.811 5.375,13.447C5.387,14.068 5.181,14.29 4.552,14.276C3.035,14.242 1.518,14.265 0,14.265" style="fill:rgb(214,25,41);"/>
            </g>
            <g transform="matrix(1,0,0,1,83.5195,142.996)">
                <path d="M0,-1.353C1.344,-2.862 2.688,-4.37 4.017,-5.862C3.645,-6.4 2.82,-5.617 2.637,-6.483C2.42,-7.513 2.653,-7.828 3.721,-7.831C4.959,-7.835 6.2,-7.797 7.437,-7.845C8.095,-7.871 8.25,-7.614 8.229,-7.012C8.208,-6.455 8.253,-5.936 7.447,-6.073C6.904,-6.165 6.557,-5.882 6.223,-5.497C5.097,-4.2 3.965,-2.905 2.8,-1.642C2.432,-1.243 2.396,-0.977 2.752,-0.541C4.013,1.008 5.24,2.585 6.457,4.169C6.725,4.518 7.002,4.75 7.449,4.668C8.308,4.511 8.396,4.968 8.412,5.685C8.429,6.518 7.94,6.443 7.407,6.44C6.128,6.433 4.849,6.42 3.57,6.446C2.947,6.458 2.522,6.436 2.537,5.587C2.55,4.848 2.75,4.55 3.487,4.667C3.599,4.684 3.72,4.644 3.993,4.613C2.627,2.767 1.313,0.99 -0.001,-0.789C-0.128,-0.977 -0.137,-1.166 0,-1.353" style="fill:rgb(214,25,41);"/>
            </g>
            <g transform="matrix(1,0,0,1,83.5195,142.948)">
                <path d="M0,-1.305C0,-1.118 -0.001,-0.929 -0.001,-0.741C-0.335,-0.871 -0.401,-0.715 -0.398,-0.41C-0.389,1.068 -0.371,2.547 -0.405,4.025C-0.419,4.658 -0.101,4.796 0.406,4.713C1.269,4.572 1.235,5.095 1.26,5.706C1.286,6.366 1.021,6.513 0.422,6.497C-0.896,6.462 -2.216,6.455 -3.533,6.5C-4.176,6.521 -4.375,6.298 -4.334,5.677C-4.299,5.149 -4.412,4.577 -3.578,4.72C-2.682,4.875 -2.545,4.424 -2.557,3.639C-2.598,0.763 -2.59,-2.115 -2.561,-4.992C-2.554,-5.703 -2.648,-6.18 -3.516,-6.026C-4.259,-5.894 -4.325,-6.315 -4.343,-6.924C-4.362,-7.604 -4.157,-7.825 -3.47,-7.799C-2.113,-7.748 -0.752,-7.748 0.605,-7.799C1.293,-7.826 1.499,-7.607 1.476,-6.926C1.455,-6.326 1.411,-5.897 0.657,-6.024C-0.187,-6.165 -0.464,-5.803 -0.41,-4.965C-0.343,-3.931 -0.396,-2.889 -0.393,-1.85C-0.392,-1.579 -0.456,-1.252 0,-1.305" style="fill:rgb(214,25,41);"/>
            </g>
            <g transform="matrix(1,0,0,1,157.523,142.172)">
                <path d="M0,0.232C0,-1.326 -0.009,-2.882 0.005,-4.44C0.01,-4.939 -0.054,-5.347 -0.691,-5.243C-1.568,-5.099 -1.487,-5.657 -1.534,-6.246C-1.6,-7.067 -1.12,-7.021 -0.569,-7.013C0.588,-6.997 1.747,-6.988 2.904,-7.016C3.475,-7.031 3.824,-6.931 3.755,-6.245C3.704,-5.744 3.887,-5.125 3.024,-5.249C2.297,-5.355 2.167,-4.973 2.172,-4.342C2.194,-1.387 2.195,1.568 2.171,4.523C2.165,5.189 2.262,5.623 3.068,5.499C3.844,5.379 3.724,5.933 3.754,6.41C3.789,6.986 3.666,7.299 2.984,7.275C1.708,7.23 0.428,7.231 -0.848,7.275C-1.512,7.297 -1.563,6.945 -1.515,6.457C-1.473,6.033 -1.729,5.378 -0.898,5.503C0.046,5.647 0.016,5.07 0.006,4.425C-0.013,3.028 0,1.629 0,0.232" style="fill:rgb(214,26,42);"/>
            </g>
            <g transform="matrix(1,0,0,1,258.793,149.112)">
                <path d="M0,-13.948C0.479,-13.948 0.964,-13.994 1.435,-13.934C1.89,-13.877 2.618,-14.315 2.626,-13.289C2.631,-12.554 2.592,-12.03 1.642,-12.177C1.102,-12.26 1.115,-11.839 1.115,-11.469C1.116,-8.356 1.123,-5.243 1.107,-2.13C1.105,-1.625 1.253,-1.356 1.786,-1.448C2.665,-1.599 2.581,-1.033 2.625,-0.445C2.687,0.367 2.212,0.336 1.657,0.327C0.5,0.311 -0.658,0.3 -1.814,0.332C-2.409,0.348 -2.704,0.19 -2.658,-0.469C-2.621,-0.995 -2.737,-1.572 -1.901,-1.444C-1.19,-1.335 -1.04,-1.677 -1.046,-2.329C-1.074,-5.321 -1.075,-8.315 -1.046,-11.308C-1.039,-11.971 -1.217,-12.288 -1.915,-12.19C-2.763,-12.071 -2.611,-12.673 -2.656,-13.184C-2.718,-13.873 -2.363,-13.984 -1.796,-13.955C-1.199,-13.924 -0.599,-13.948 0,-13.948" style="fill:rgb(214,25,41);"/>
            </g>
            <g transform="matrix(1,0,0,1,132.308,138.863)">
                <path d="M0,0.113C-0.001,-2.012 -0.001,-2.012 2.188,-1.928C4.07,-1.855 4.757,-1.345 4.789,-0.011C4.816,1.115 4.285,1.843 3.182,2.002C2.322,2.125 1.437,2.069 0.563,2.102C0.166,2.117 -0.019,1.957 -0.003,1.545C0.015,1.068 0.001,0.591 0,0.113" style="fill:rgb(254,252,252);"/>
            </g>
            <g transform="matrix(1,0,0,1,148.208,142.919)">
                <path d="M0,-5.996C0.563,-4.235 1.121,-2.473 1.695,-0.715C1.82,-0.33 1.675,-0.205 1.318,-0.208C1.239,-0.208 1.159,-0.21 1.08,-0.205C-2.261,0 -2.262,0 -1.209,-3.163C-0.896,-4.102 -0.578,-5.041 -0.262,-5.979C-0.174,-5.985 -0.087,-5.99 0,-5.996" style="fill:rgb(254,253,253);"/>
            </g>
            <g transform="matrix(1,0,0,1,103.438,141.97)">
                <path d="M0,5.921C-1.551,5.952 -2.913,4.974 -3.3,3.7C-3.707,2.365 -3.176,1.092 -1.941,0.298C-1.452,-0.016 -1.15,-0.031 -0.795,0.503C0,1.698 0.816,2.885 1.709,4.007C2.272,4.713 2.102,5.089 1.389,5.454C0.883,5.714 0.363,5.885 0,5.921" style="fill:rgb(254,253,253);"/>
            </g>
            <g transform="matrix(0.00851468,0.999964,0.999964,-0.00851468,103.91,136.758)">
                <path d="M1.214,-1.739C0.26,-1.615 -0.142,-1.06 -0.119,-0.179C-0.095,0.668 0.364,1.164 1.214,1.197C1.884,1.223 3.106,-0 2.959,-0.677C2.773,-1.544 1.898,-1.58 1.214,-1.739" style="fill:rgb(254,251,252);"/>
            </g>
            <g transform="matrix(1,0,0,1,190.423,138.563)">
                <path d="M0,0.386C-0.001,-1.859 0.276,-2.033 3.079,-1.551C4.341,-1.333 4.867,-0.639 4.76,0.619C4.676,1.608 4.101,2.175 3.182,2.301C2.315,2.418 1.428,2.367 0.551,2.403C0.133,2.419 -0.015,2.22 -0.002,1.825C0.013,1.346 0.001,0.865 0,0.386" style="fill:rgb(254,252,252);"/>
            </g>
            <g transform="matrix(1,0,0,1,232.746,138.786)">
                <path d="M0,0.173C0,-2.052 0,-2.052 2.57,-1.831C4.163,-1.693 4.893,-0.943 4.735,0.385C4.63,1.278 4.166,1.86 3.276,2.047C2.891,2.128 2.489,2.163 2.094,2.173C0,2.225 0,2.22 0,0.173" style="fill:rgb(254,253,253);"/>
            </g>
            <g transform="matrix(1,0,0,1,41.9399,136.83)">
                <path d="M0,4.131C-1.645,4.141 -1.645,4.141 -1.645,2.278C-1.645,-0.01 -1.645,-0.01 0.654,0.112C2.336,0.201 3.141,0.837 3.136,2.072C3.13,3.389 2.28,4.079 0.599,4.13C0.399,4.136 0.2,4.131 0,4.131" style="fill:rgb(254,253,253);"/>
            </g>
        </g>
    </g>
    <g id="Marks---Bleeds" serif:id="Marks &amp; Bleeds" transform="matrix(4.16667,0,0,4.16667,0,0)">
        <g transform="matrix(1,0,0,1,-6,169.318)">
            <path d="M0,-169.318L-27,-169.318M326.773,-169.318L353.773,-169.318M0,0L-27,0M326.773,0L353.773,0M6,-175.318L6,-202.318M6,6L6,33M320.773,-175.318L320.773,-202.318M320.773,6L320.773,33" style="fill:none;fill-rule:nonzero;stroke:white;stroke-width:1.25px;"/>
        </g>
        <g transform="matrix(1,0,0,1,-6,169.318)">
            <path d="M0,-169.318L-27,-169.318M326.773,-169.318L353.773,-169.318M0,0L-27,0M326.773,0L353.773,0M6,-175.318L6,-202.318M6,6L6,33M320.773,-175.318L320.773,-202.318M320.773,6L320.773,33" style="fill:none;fill-rule:nonzero;stroke:#0E6B6Flack;stroke-width:0.25px;"/>
        </g>
    </g>
</svg>
